<svg xmlns="http://www.w3.org/2000/svg" data-name="Layer 1" viewBox="0 0 512 512"><path fill="#ecf5fb" d="M58,240.61c-3,23.33,0,48.2,12.84,67.9C79,321,90.77,330.83,103.23,339.07c15,9.92,31.56,17.89,49.23,21.3,18.46,3.55,37.48,2,56.26,2.93,38.93,1.91,76.62,14.33,115.4,18.31s81.93-2.38,108.34-31c15.55-16.88,23.38-39.51,27.76-62s5.73-45.58,10.44-68c3.79-18,9.77-36.08,8.2-54.44-2.38-27.84-22.31-51.86-46.49-65.86S380.1,80.72,352.44,76.78a885.09,885.09,0,0,0-104.63-8.65c-14.72-.35-29.51-.32-44.09,1.81-29.54,4.31-57.38,18-79.66,37.74C101.59,127.6,88.83,152.62,75.64,179,66.41,197.39,60.61,220.24,58,240.61Z"/><path fill="#cee9ff" d="M398.57,360.7c-2.59,0-5.16,0-7.72-.05L271,359.56c-15.28-.14-30.55-2.57-45.31-4.92-13.12-2.09-26.69-4.25-40.17-4.78-4.38-.17-8.69-.21-12.86-.25-9.51-.08-18.49-.16-28.23-1.69a362.49,362.49,0,0,1-45.94-10.29c-11.52-3.39-23.3-7.72-31.41-16.37-4-4.24-7.28-9.77-10.12-16.89-6.9-17.29-8.92-37.47-6-60a101.34,101.34,0,0,1,6-24.79c3.63-9.15,9.05-17.47,14.29-25.51l35-53.72c6.28-9.62,12.77-19.58,20.94-28,34.68-35.81,83.35-39.22,116.9-38.68,19.86.33,40.4.66,60.24,4.82,14.22,3,28.59,1.14,42.5-.64,13.45-1.73,27.37-3.52,41.35-1,30.64,5.46,57.36,19.74,75.24,40.23,6.55,7.51,10.83,14.67,13.1,21.9,3.81,12.18,2.12,25.17.5,37.74l-.38,2.95a462.92,462.92,0,0,0-2.56,89.78l.23,3.35c1.6,22.72,3.42,48.47-11.29,66.44-9.54,11.66-23.51,16.72-33.56,18.91S408.86,360.7,398.57,360.7Zm-159.95-285c-50.45,0-84.5,11.84-109.91,38.09-8,8.29-14.47,18.16-20.7,27.71L73,195.22c-5.19,8-10.55,16.18-14.11,25.14A100,100,0,0,0,53,244.65c-2.88,22.16-.9,42,5.86,58.94,2.75,6.88,5.92,12.19,9.72,16.23,8.15,8.71,20,12.72,30.46,15.8a358.87,358.87,0,0,0,45.66,10.23c9.6,1.5,18.51,1.58,27.94,1.67,4.19,0,8.52.08,12.93.25,13.6.53,27.23,2.7,40.41,4.8,14.69,2.34,29.88,4.76,45,4.89l119.87,1.1c12.62.11,25.67.23,38.16-2.49,9.73-2.12,23.24-7,32.39-18.19,14.18-17.33,12.39-42.64,10.82-65l-.24-3.35a465.56,465.56,0,0,1,2.58-90.19l.38-3c1.6-12.34,3.25-25.1-.43-36.85-2.17-6.95-6.32-13.86-12.67-21.15-17.57-20.12-43.86-34.16-74-39.54-13.67-2.43-27.43-.66-40.73,1-14.07,1.81-28.62,3.68-43.19.62-19.65-4.12-40.08-4.45-59.84-4.78C242.23,75.73,240.41,75.71,238.62,75.71Z"/><circle cx="53.01" cy="247.62" r="5.23" fill="#d5ecff"/><circle cx="268.68" cy="75.92" r="5.23" fill="#d5ecff"/><circle cx="475.98" cy="157.59" r="5.23" fill="#d5ecff"/><circle cx="473.88" cy="308.35" r="5.23" fill="#d5ecff"/><circle cx="455.04" cy="220.4" r="5.23" fill="#d5ecff"/><circle cx="90.7" cy="199.46" r="5.23" fill="#d5ecff"/><g><path fill="#00d3a0" d="M233.15,118.21h49.23a8.5,8.5,0,0,1,8.57,8.42V157.1a8.78,8.78,0,0,1-8.66,8.65H272.2v11.54l-11.54-11.54H233.25a8.77,8.77,0,0,1-8.66-8.65V126.63A8.49,8.49,0,0,1,233.15,118.21Z"/><rect width="51.93" height="2.89" x="231.8" y="128.25" fill="#fff" rx=".64"/><rect width="51.93" height="2.89" x="231.8" y="136.9" fill="#fff" rx=".64"/><rect width="51.93" height="2.89" x="231.8" y="145.56" fill="#fff" rx=".64"/><rect width="51.93" height="2.89" x="231.8" y="154.21" fill="#fff" rx=".64"/><path fill="#ffcdbe" d="M247.3,228.26l-1-4.83A17.68,17.68,0,0,0,249.57,213a102.23,102.23,0,0,1,1.31-13.64s3-5.06,5.46-6.5a2,2,0,0,0,1.09-1.9c-.11-1.23-.77-2.74-3.32-2.74-4.27,0-11.51,4.62-11.6,13.7l-1.74.58s-2.62-8.17-5.59-11.75c0,0-7.61-23.91-12.74-22.68-3.88.93,6.26,24.6,6.26,24.6l-.5.41s-12.73-26.3-17.62-24.08c-4.63,2.1,11.17,27.22,11.17,27.22l-1.49.87s-12.32-24-17.51-20.33c-2.9,2,12.11,23.26,12.11,23.26L213,201s-11.49-17.84-15.85-16.88S208,204.59,208,204.59s6.1,23.23,15.44,25.85l1,3.94S238,235.06,247.3,228.26Z"/><path fill="#faa68e" d="M223.28,230.44l1.05,3.94s13.53.68,22.86-6.12l-1.05-4.83C233,232.3,223.28,230.44,223.28,230.44Z"/><path fill="#faa68e" d="M211.82,204a.79.79,0,0,1-.79-.79.77.77,0,0,1,.3-.61c.43-.34,10.65-8.3,20.26-10.62a.79.79,0,0,1,.37,1.53c-9.27,2.24-19.55,10.24-19.66,10.32A.76.76,0,0,1,211.82,204Z"/><path fill="#faa68e" d="M228.7,220.47a.79.79,0,0,1-.77-.61c-1.82-8.15-13.32-10.18-13.43-10.2a.78.78,0,0,1-.62-.92.79.79,0,0,1,.88-.63c.46.08,10.17,1.79,13.71,8.67,1.09-4.29,4.07-12.14,11.67-14a.79.79,0,1,1,.37,1.53h0c-9.31,2.29-11,15.35-11,15.48a.79.79,0,0,1-.74.69Z"/><polygon fill="#faa68e" points="338.83 200.51 338.83 242.39 372.33 242.39 372.33 179.57 338.83 179.57 338.83 200.51"/><path fill="#ea8a6f" d="M351.39,221.45a6.62,6.62,0,0,1-4.85-2c-3.69-3.7-2-10.08,2.85-12,8.91-3.59,18.74-13,22.94-17.31V179.57h-33.5v62.82h33.5V221.45Z"/><path fill="#b5d3ff" d="M349.3,221.45l-1,2a10.25,10.25,0,0,0-1.09,4.61v8l-2.09,6.28-2.1-6.28v-6.28l2.1-6.29v-2.09h-6.28v-8.38l-6.29.53V324.05h46.07v-111Z"/><path fill="#a0c7ff" d="M355.58,242.39s8.55-4.44,12.56-8.38a23.59,23.59,0,0,1,5.56-3.82l.72-.36h4.19V213.07l-29.31,8.38-1,2a10.34,10.34,0,0,0-1.07,4.29C347.42,227.9,355.58,234.12,355.58,242.39Z"/><path fill="#a0c7ff" d="M338.83,231.92c2.09,0,4.18,4.19,4.18,4.19v-6.28l2.1-6.28v-2.09h-6.28v-8.38l-6.29.52v24.61h2.1S336.73,231.92,338.83,231.92Z"/><path fill="#cee2ff" d="M372.33,197v7.72l-23,16.75s8.37,6.28,8.37,14.66v4.19h2a4.17,4.17,0,0,0,3.4-1.75c3.89-5.45,15.5-22,15.5-25.48v-4.18S376.52,197.63,372.33,197Z"/><path fill="#cee2ff" d="M338.83,204.7v6.89s2.09,9.86,6.28,9.86h0s0,2.09-4.19,2.09-6.28,14.66-6.28,14.66a167.63,167.63,0,0,1-2.1-23v-2.1l1.08-4.31a5.37,5.37,0,0,1,5.21-4.06Z"/><path fill="none" d="M330.45,213.07h2.09s2.1,10.47,12.57,10.47v6.29"/><path fill="#aac3e9" d="M338.83,211.59V204.7a5.37,5.37,0,0,0-5.21,4.06l-1.08,4.31s2.1,8.38,12.57,8.38h0C340.92,221.45,338.83,211.59,338.83,211.59Z"/><path fill="#a8c1e7" d="M374.47,206.42a5.7,5.7,0,0,0,2-4.38c0-.08,0-.16,0-.24-1-2.4-2.4-4.55-4.16-4.82v7.72l-23,16.75a27,27,0,0,1,2.32,2.09h0C359.53,218.69,370.08,210.08,374.47,206.42Z"/><path fill="#759edb" d="M343,306.25a1,1,0,0,1-1-1.06h0V273.26c0-4.26,2-28.85,2.09-29.89a1.05,1.05,0,0,1,2.1.11.13.13,0,0,0,0,.06c0,.26-2.09,25.55-2.09,29.72v31.93a1,1,0,0,1-1,1.06Z"/><path fill="#cee2ff" d="M221.57,240.3l-2.1-6.29s20.94-2.09,29.32-8.37l2.09,6.28S238.32,242.39,221.57,240.3Z"/><path fill="#1c2d80" d="M295.26,226.48l-1.8.9a2.07,2.07,0,0,0-1,1.08c-1.25,3-6,15-6,22.31,0,8.37-14.66,50.25-14.66,50.25l-20.94-71.19s-20.94,8.37-31.41,8.37c0,0,18.85,111,46.07,113.07s46.07-52.35,46.07-52.35-8.79-59.73-13.48-71.38a2.09,2.09,0,0,0-2.72-1.13Z"/><path fill="#1c2d80" d="M332.54,213.6,343,319.86v50.26H303.23l1-27.05s3.14-44.15,1-48.33-6.28-64.91-10.47-67c0,0-2.09-2.09,4.19-2.09s18.85-4.19,18.85-4.19S324.17,214.12,332.54,213.6Z"/><path fill="#131f5d" d="M333.31,221.39l-15.42,23.09,10.47,14.66-10.47,8.38,12.72,49.09A12.53,12.53,0,0,1,324.14,331c-3.09,1.54-13.09,2.94-19.3,3.44-.31,5.14-.56,8.66-.56,8.66l-1,27.05H343V319.86Z"/><path fill="#2f419f" d="M328.36,255,320,261.24l23,72.94V319.86L332.54,213.6a16.5,16.5,0,0,0-3.48.62L317.89,240.3Z"/><path fill="#22348f" d="M377.55,204.7a15,15,0,0,1,1.06,6.28v4.1L330.45,345v25.13h81.66V271.7s6.28-33.5,20.94-37.69h0a3.83,3.83,0,0,0-3.68-4h-.31l-8.37-2.09s-25.33-10.69-29.52-12.78S380.67,206.79,377.55,204.7Z"/><path fill="#1a2976" d="M405.83,259.14c-5.44,19.06-11.77,46.09-15.54,62.66a19,19,0,0,1-18.56,14.82H354.36a4.19,4.19,0,0,1-3.67-6.21c10.62-19.17,30-52.42,30-52.42l-20-14.56-27.13,73.19h0L330.45,345v25.13h81.66V271.7s5.08-27.06,16.75-35.57v-3.49S414.21,229.83,405.83,259.14Z"/><path fill="#3346a9" d="M370.23,257.05l25.13-16.75-4.19-25.13c-4.18-2.1-10.5-8.38-13.62-10.47a15,15,0,0,1,1.06,6.28v4.1L330.45,345v6.28l50.25-81.66Z"/><path fill="#0c174a" d="M251.83,369.31h-15a2.1,2.1,0,0,1-2.11-2.08,2.08,2.08,0,0,1,.43-1.28c3.07-4,11.68-10.18,22.94-11.3,1.22-.12,2.44-.23,3.65-.32,1.68-.12,3.36-.2,5.05-.23,1.42,0,2.84,0,4.26.06q1.79.09,3.57.33c1,.13,2,.31,3,.54a23,23,0,0,1,2.45.74,16.63,16.63,0,0,1,2,.91,15.16,15.16,0,0,1,1.69,1,17.34,17.34,0,0,1,1.44,1.12c.44.38.87.78,1.28,1.18a9,9,0,0,1,2,2.54,9.88,9.88,0,0,1,.93,4.51,2.17,2.17,0,0,1-2.09,2.25Z"/><path fill="#92abce" d="M251.83,369.31s9.87-8.51,23.44-8.51c14.11,0,13.17,2.79,14.05,5.89a2.07,2.07,0,0,1-1.49,2.54,2,2,0,0,1-.55.07Z"/><path fill="#ffcdbe" d="M305.26,347.27l-11.17,1.12-14.9-4.89a12.26,12.26,0,0,0-4.17-1H261.41a6.74,6.74,0,0,0-3.09.75l-9.67,5a8.94,8.94,0,0,0-2.83,2.68c-1.82,2.72-4.9,7.88-3.28,9.5,0,.09,0-.05.05,0a1.88,1.88,0,0,0,1.74,0,11.79,11.79,0,0,0-.94,2.46,1.76,1.76,0,0,0-.08,1,1.39,1.39,0,0,0,.64.71,2.84,2.84,0,0,0,3.85-.85c0,.38,0,.72,0,1.1a2.15,2.15,0,0,0,.08,1,1.44,1.44,0,0,0,.64.67,3.21,3.21,0,0,0,1.55.36,3.59,3.59,0,0,0,1.68-.31,5,5,0,0,0,1.22-1l1.43-1.42a4.89,4.89,0,0,0-.46,1.48,2.36,2.36,0,0,0,.19,1.57,1.77,1.77,0,0,0,1.87.93,8.3,8.3,0,0,0,2.16-1.29,34.12,34.12,0,0,0,5.57-4.68c1.19-1.33,3.18-1.74,4.74-2.62a27.81,27.81,0,0,0,10.09,1.24,34.4,34.4,0,0,0,6.22,3.8,9.56,9.56,0,0,0,4.29,1l16.57.44Z"/><path fill="#faa68e" d="M305.26,347.27l-8.51.85v3.67a9,9,0,0,1-9,9c-.26,0-.51,0-.76,0a21.32,21.32,0,0,1-5.3-1.07,69.89,69.89,0,0,0-8.74-2.43,3.94,3.94,0,0,0-4.46,2.35,27.57,27.57,0,0,0,10.09,1.23,35,35,0,0,0,6.22,3.81,9.49,9.49,0,0,0,4.29,1l16.57.45Z"/><path fill="#ea8a6f" d="M245.48,359a.25.25,0,0,1-.16,0,.27.27,0,0,1-.07-.38h0l3.9-5.73a4.66,4.66,0,0,1,2-1.67l6.72-3a.28.28,0,0,1,.37.14.28.28,0,0,1-.14.37h0l-6.72,3a4.18,4.18,0,0,0-1.77,1.48l-3.91,5.73A.27.27,0,0,1,245.48,359Z"/><path fill="#ea8a6f" d="M248.77,362.68a.49.49,0,0,1-.17-.06.28.28,0,0,1,0-.39h0l4.73-6.1a4.9,4.9,0,0,1,1.95-1.48l6.46-2.66a.28.28,0,0,1,.37.16.28.28,0,0,1-.15.36h0l-6.46,2.66a4.19,4.19,0,0,0-1.72,1.31l-4.74,6.1A.27.27,0,0,1,248.77,362.68Z"/><path fill="#ea8a6f" d="M254.73,363.78a.27.27,0,0,1-.17-.06.28.28,0,0,1-.06-.39h0l3.41-4.55A4.83,4.83,0,0,1,260.5,357l7.05-1.87a.28.28,0,1,1,.14.54h0l-7,1.87a4.31,4.31,0,0,0-2.29,1.54L255,363.67A.27.27,0,0,1,254.73,363.78Z"/><rect width="8.38" height="25.13" x="301.14" y="344.99" fill="#b5d3ff"/><path fill="#82b6ff" d="M305.32,345v14.72a4.12,4.12,0,0,1-4.12,4.13h-.06v6.28h8.37V345Z"/><path fill="#22348f" d="M425.19,233.76a10.5,10.5,0,0,1,13,3c.36.46.72,1,1.1,1.44,1.94,2.49,4.19,6.43,4.19,8.38,0,4.19-18.84,115.17-18.84,115.17s-1.05,8.37-12,8.37H309.51V342.9h79.57s4.19-2.1,6.28-2.1c0,0-2.09-4.18,0-4.18a6.3,6.3,0,0,1,1.8-3.88,2.91,2.91,0,0,1,.3-.31c2.09-2.1,8.37-46.07,8.37-46.07s8.38-48.16,18.85-52.35Z"/><path fill="#1b2a78" d="M411.5,363.84h-102v6.28H412.64c11,0,12-8.38,12-8.38s1.27-7.5,3.15-18.67a46.62,46.62,0,0,1-8,16.59A10.42,10.42,0,0,1,411.5,363.84Z"/><path fill="#131f5d" d="M412.11,345.78a.77.77,0,0,1-.65-.35c-3.85-5.78-13.75-3.88-13.85-3.86a.77.77,0,0,1-.92-.61.76.76,0,0,1,0-.47c.14-.31,3.5-7.8,16.43-7.8a.79.79,0,1,1,0,1.57h0c-8.6,0-12.58,3.54-14.14,5.54,3.27-.33,10.34-.36,13.75,4.76a.79.79,0,0,1-.22,1.09A.84.84,0,0,1,412.11,345.78Z"/><path fill="#131f5d" d="M409,353.1a.75.75,0,0,1-.65-.35c-4-5.93-14.06-8-14.16-8a.77.77,0,0,1-.61-.92h0a.8.8,0,0,1,.92-.62c.45.1,10.84,2.24,15.16,8.71a.78.78,0,0,1-.65,1.22Z"/><path fill="#131f5d" d="M265.54,335.12a1.17,1.17,0,0,1-.91-.42c-.46-.55-.39-1.43.21-2.62,1.6-3.21,3.39-19,4.11-26.94a.77.77,0,0,1,.82-.72h0a.79.79,0,0,1,.71.86c-.09.94-2.13,23.23-4.27,27.5a2.85,2.85,0,0,0-.18.43c1.25-1.11,3.79-5,5-13.46a.78.78,0,0,1,.87-.66h0a.79.79,0,0,1,.67.89h0c-1.43,10-4.85,14.57-6.66,15.08A1.51,1.51,0,0,1,265.54,335.12Zm.37-1.29Z"/><path fill="#131f5d" d="M276,324.84a.79.79,0,0,1-.79-.79c0-14.17-2-18.45-2-18.5a.78.78,0,0,1,.36-1.05.8.8,0,0,1,1.05.35h0c.09.18,2.17,4.53,2.17,19.2a.78.78,0,0,1-.78.79Z"/><path fill="#131f5d" d="M306.37,292.64a1,1,0,0,1-1.05-1h0c0-30.81-12.32-55.82-12.45-56.07a1,1,0,1,1,1.86-1v0c.13.26,12.68,25.71,12.68,57A1,1,0,0,1,306.37,292.64Z"/><path fill="#131f5d" d="M304.28,303.11a1,1,0,0,1-1-1c-.36-13.67-8.25-39.25-8.33-39.5a1,1,0,0,1,.73-1.29,1,1,0,0,1,1.27.67c.33,1.06,8.06,26.11,8.42,40.06a1.05,1.05,0,0,1-1,1.08Z"/><path fill="#131f5d" d="M396.94,334l-.21,0a1,1,0,0,1-.81-1.24h0a26.63,26.63,0,0,1,1.83-5.21,3.17,3.17,0,0,0,.27-1.13c.89-15.42,11.69-62.4,12.15-64.39a1.06,1.06,0,0,1,1.25-.8,1,1,0,0,1,.79,1.25v0c-.11.48-11.22,48.79-12.1,64a5.09,5.09,0,0,1-.46,1.88A24.49,24.49,0,0,0,398,333.2,1,1,0,0,1,396.94,334Z"/><circle cx="245.65" cy="241.34" r="3.14" fill="#cee2ff"/><path fill="#774136" d="M306.94,165.94a11.25,11.25,0,0,1,4.45-13.32l-1.18-8.3-10.36,1.48,1.77,12.44S304.57,164.16,306.94,165.94Z"/><path fill="#a65d4e" d="M345.16,137.25h0L307,151.13s-5,9.18,0,14.81c0,0-9.17-5-11.24-19.55-1.17-8.3,4.17-15.4,4.17-15.4h0A19.46,19.46,0,0,1,307,113c6.12-4.87,14.35-12.55,22.26-13.67,8.29-1.18,12.14-3.84,18.66-2.65s9.47,7.11,9.47,7.11l4.41,31.1Z"/><path fill="#774136" d="M339.26,110.59a33.42,33.42,0,0,1,19.48,3.1l-1.41-9.9a15.08,15.08,0,0,0-3.76-4.46c-6.57,10-33.54,11.87-39.48,12.72a5.89,5.89,0,0,1-4.67-1.06c-.86.7-1.69,1.38-2.48,2a19.29,19.29,0,0,0-6.75,10.77,29.2,29.2,0,0,1,18.34-10.24Z"/><path fill="#a65d4e" d="M344.28,131s-1.46-25.18,13.05-27.24c0,0,8.59.9,11.25,4.75s8.43,8.9,12.72,15.11c5.33,7.71,1.16,37.91-11.28,39.67l-20.73,3Z"/><path fill="#774136" d="M382.16,125.28c-2.33.67-5,.82-7.08-.74-4.23-3.18-9.64-14.65-16.66-16.2a2.08,2.08,0,0,1-.88-3.67,6.41,6.41,0,0,1,1.16-.68c-.84-.14-1.37-.19-1.37-.19C342.82,105.86,344.28,131,344.28,131l1.18,8.29s-3-23,12.74-14.5c6.13,3.32,9.29,5.83,10.27,12.73l3.58,25.2C382.2,158.48,385.86,134.31,382.16,125.28Z"/><path fill="#ffcdbe" d="M307,151.13l3.14,22.09a61,61,0,0,0,7.34,21.9c4.21,7.33,10.5,14.37,18.79,13.19,22.81-3.24,40.3-29,40.3-29l-8.27-28.43s-22.5-9.49-24-19.86a52.38,52.38,0,0,1-19.55,11.24C312.58,146.1,307,151.13,307,151.13Z"/><path fill="#faa68e" d="M319.39,149.37a95.65,95.65,0,0,0,23.41-13.9c-.9,8.58,23.67,17.78,23.67,17.78l2.07-.29-.29-2.07s-22.5-9.5-24-19.86a52.36,52.36,0,0,1-19.55,11.23c-12.15,3.84-17.78,8.87-17.78,8.87l1.11,7.77C309.38,154.67,311.39,152.62,319.39,149.37Z"/><rect width="4.19" height="16.75" x="321.13" y="167.94" fill="#faa68e" rx=".93" transform="rotate(-8.08 323.353 176.371)"/><path fill="#774136" d="M326.79,156.77s10.07-3.54,14.22-4.13,8-3.25,3.55-4.73S326.2,152.63,326.79,156.77Z"/><path fill="#774136" d="M320.57,157.66a68.18,68.18,0,0,0-8.49,1.69c-2.42.83-5.53-.31-3.78-3.13S319.21,153.7,320.57,157.66Z"/><ellipse cx="337.44" cy="164.78" fill="#774136" rx="3.14" ry="7.33" transform="rotate(-8.08 337.613 164.857)"/><ellipse cx="313.75" cy="169.2" fill="#774136" rx="2.09" ry="6.28" transform="rotate(-8.08 313.892 169.3)"/><path fill="#842630" d="M323.12,191.28l16.54-2.64s.33,12.67-6.29,13.73S323.12,191.28,323.12,191.28Z"/><path fill="#f25a6b" d="M333.37,202.37c2.75-.44,4.29-2.89,5.17-5.6-1.68-2.3-4.13-.93-6.88-.49s-4.06-.33-4.94,2.38C328.4,201,330.62,202.81,333.37,202.37Z"/><path fill="#f5f5fc" d="M326.93,193.85l9.92-1.58c1.22-.19,2.08-1.62,2.36-3.56l-15.63,2.5C324.45,193,325.7,194.05,326.93,193.85Z"/><circle cx="354.31" cy="179.3" r="11.52" fill="#faa68e"/><ellipse cx="377.27" cy="162.3" fill="#0c174a" rx="13.61" ry="18.84" transform="rotate(-8.42 377.452 162.39)"/><path fill="#02041a" d="M376.17,170a17.16,17.16,0,0,1-12.6-10.87,26.32,26.32,0,0,0,.24,5.17C365.33,174.59,372.6,182,380,181c6.91-1,11.53-9.07,10.93-18.47C387.17,169.41,380.93,170.86,376.17,170Z"/><ellipse cx="380.07" cy="162.62" fill="#22348f" rx="10.89" ry="15.22" transform="rotate(-8.42 380.232 162.663)"/><path fill="#22348f" d="M358.74,113.69a33.41,33.41,0,0,0-19.48-3.1l-20.73,2.94a29.2,29.2,0,0,0-18.34,10.24,19.93,19.93,0,0,0-.33,7.22h0a20.87,20.87,0,0,1,15.38-10.64l27.05-3.85a25.19,25.19,0,0,1,28.39,21.25l2.57,18.77,6.22-.88-2.36-16.59A33.44,33.44,0,0,0,358.74,113.69Z"/><path fill="#070d34" d="M337,189l8.08-1.15a.92.92,0,0,1,1,.79l.92,6.46a.92.92,0,0,1-.79,1l-8.07,1.15a1.39,1.39,0,0,1-1.57-1.18l-.79-5.54A1.38,1.38,0,0,1,337,189Z"/><path fill="#02051c" d="M344.51,192.18l-5.18.74a3.12,3.12,0,0,1-3.22-1.66,3.2,3.2,0,0,0,0,1.07l.29,2.07a3.15,3.15,0,0,0,3.56,2.67l5.18-.74a2.08,2.08,0,0,0,1.77-2.37h0l-.59-4.14A2.08,2.08,0,0,1,344.51,192.18Z"/><path fill="#070d34" d="M379.9,188.22l-33.17,4.71-.3-2.08,33.17-4.71a3.14,3.14,0,0,0,2.67-3.55l-1.47-10.37,2.07-.29,1.47,10.37A5.25,5.25,0,0,1,379.9,188.22Z"/><ellipse cx="380.95" cy="160.42" fill="#7388ff" rx="6.8" ry="10.14" transform="rotate(-8.4 380.81 160.355)"/><path fill="#131f5d" d="M382.55,170.32c-3.72.53-7.39-3.54-8.18-9.08s1.57-10.48,5.29-11c2.22-.32,4.42,1,6,3.3-1.92-3.11-4.72-4.95-7.55-4.54-4.47.64-7.3,6.61-6.33,13.35s5.37,11.68,9.83,11,7.3-6.62,6.33-13.35c0-.13,0-.24-.06-.36C388.53,165.07,386.19,169.8,382.55,170.32Z"/><rect width="443.91" height="16.75" x="39.4" y="370.12" fill="#05165e" rx="3.7"/><rect width="404.12" height="77.48" x="60.34" y="386.87" fill="#74a4e9"/><polygon fill="#638dc9" points="60.34 386.87 60.34 435.03 464.46 404.14 464.46 386.87 60.34 386.87"/><path fill="#cee2ff" d="M243,352.89,101,341.06a4.19,4.19,0,0,1-3.72-3.2L72.16,233.37a4.18,4.18,0,0,1,3.09-5.05,4.28,4.28,0,0,1,1.33-.11l142,11.83a4.2,4.2,0,0,1,3.73,3.2l25.15,104.49a4.18,4.18,0,0,1-3.09,5A4.23,4.23,0,0,1,243,352.89Z"/><path fill="#6b7786" d="M250.76,348.09,225.25,241.45a4.26,4.26,0,0,0-3.78-3.26l-144-12.07A4.23,4.23,0,0,0,73,229.79a4.17,4.17,0,0,1,3.61-1.58l142,11.83a4.18,4.18,0,0,1,3.72,3.2l25.16,104.49a4.18,4.18,0,0,1-3.09,5,4,4,0,0,1-1.33.1l-.69-.05.08.2,3.88.32a4.27,4.27,0,0,0,4.59-3.92A4.32,4.32,0,0,0,250.76,348.09Z"/><path fill="#bed0ec" d="M247.24,346.93c-129.67-6-166.19-113-168-118.49l-2.68-.23A4.19,4.19,0,0,0,72.06,232a4.27,4.27,0,0,0,.1,1.33L97.32,337.86a4.19,4.19,0,0,0,3.73,3.19l142,11.84a4.2,4.2,0,0,0,4.52-3.83,4.57,4.57,0,0,0-.1-1.33Z"/><path fill="#6b7786" d="M146.19,328.24s-10.47,14.66-10.47,25.13,8.37,16.75,8.37,16.75h79.53a2.09,2.09,0,0,0,2.09-2.05h0a2.09,2.09,0,0,0-2.05-2.14H182.19A8.29,8.29,0,0,1,177,364.1c-2.45-2-5.64-5.55-5.64-10.73,0-8.38,10.46-20.94,10.46-20.94Z"/><polygon fill="#4e5763" points="146.19 328.24 146.19 324.05 181.78 328.24 181.78 332.43 146.19 328.24"/><path fill="#535c6a" d="M223.62,365.93H182.19A8.29,8.29,0,0,1,177,364.1a14.58,14.58,0,0,1-5.47-8.7,8.34,8.34,0,0,1-7.27,4.25H142a8.36,8.36,0,0,1-5.89-2.42,23.35,23.35,0,0,0,8,12.89h79.53a2.1,2.1,0,0,0,0-4.19Z"/><path fill="#2e333b" d="M171.31,353.37c0,5.18,3.2,8.75,5.65,10.73a8.35,8.35,0,0,0,5.23,1.83h4.18a8.37,8.37,0,0,1-5.23-1.83c-2.44-2-7.74-5.55-7.74-10.73,0-8.38,8.38-20.94,8.38-20.94S171.31,345,171.31,353.37Z"/><path fill="#00d3a0" d="M460.63,47.66h-66.3A11.42,11.42,0,0,0,382.8,59v41a11.8,11.8,0,0,0,11.65,11.65h1.44v15.54l15.55-15.54H460.5A11.81,11.81,0,0,0,472.16,100V59a11.43,11.43,0,0,0-11.53-11.34Z"/><rect width="69.94" height="3.89" x="392.51" y="61.17" fill="#fff" rx=".64"/><rect width="69.94" height="3.89" x="392.51" y="72.83" fill="#fff" rx=".64"/><rect width="69.94" height="3.89" x="392.51" y="84.49" fill="#fff" rx=".64"/><rect width="69.94" height="3.89" x="392.51" y="96.14" fill="#fff" rx=".64"/><path fill="#c2daff" d="M157.46,114.47H30.52a1.82,1.82,0,0,0-1.83,1.82h0v86.9A1.83,1.83,0,0,0,30.52,205h6.93c3.24,13,25,16.44,25,16.44C56,218.55,55.28,208.77,57,205h100.5a1.83,1.83,0,0,0,1.83-1.82h0V116.29a1.83,1.83,0,0,0-1.82-1.82Z"/><polygon fill="#f4a490" points="132.16 170.93 133.85 176.02 127.07 199.76 125.37 199.76 118.59 177.71 118.59 170.93 132.16 170.93"/><polygon fill="#f4a490" points="60.92 167.53 59.22 184.5 71.09 184.5 71.09 167.53 60.92 167.53"/><path fill="#638dc9" d="M59.22,170.93s1.7-28.84,10.18-28.84a70,70,0,0,1,15.26,1.7s5.09,13.57,11.87,13.57,10.83-13.66,10.83-13.66,4.44.09,7.83.09,8.48-1.7,11.87,1.69,8.48,27.14,8.48,27.14L120.28,176s-1.7,5.08-5.09,6.78v22H69.4V172.62a36.65,36.65,0,0,0-10.18-1.69"/><path fill="#5276a8" d="M71.09,148.88c-1.08-2.16-4.21-2.94-6.35-3.23,1.26-2.17,2.79-3.56,4.66-3.56a70,70,0,0,1,15.26,1.7,40.4,40.4,0,0,0,4.82,8.85h0s-3.13,4.71-3.13,8.1c0,3-1.29,22.82-9.57,31.14a3.41,3.41,0,0,0-.15,4.81,3.49,3.49,0,0,0,1,.72A39.72,39.72,0,0,0,105,199.76a42.75,42.75,0,0,0,10.18-4v9H69.4V172.62a40.62,40.62,0,0,0-4.63-1.14C66.52,167.16,72.55,151.79,71.09,148.88Z"/><path fill="#5276a8" d="M115.19,159.05a125.07,125.07,0,0,0,8.49,10.18c2.67,2.67,8.49.08,10.84-1.14.64,2.71,1,4.53,1,4.53L120.29,176v-1.69C120.28,167.53,115.19,159.05,115.19,159.05Z"/><path fill="#f4a490" d="M105,138.7v2.85s0,2.24,3.39,2.24c0,0-1.7,15.26-11.87,15.26s-11.88-15.26-11.88-15.26l3.9-1a3.81,3.81,0,0,0,2.89-3.7v-.41Z"/><path fill="#5276a8" d="M98.23,169.65a.42.42,0,0,0,.43-.42,17.08,17.08,0,0,1,1.65-6.59.43.43,0,0,0-.19-.57.42.42,0,0,0-.57.19,17.74,17.74,0,0,0-1.74,7A.42.42,0,0,0,98.23,169.65Z"/><path fill="#5276a8" d="M97.38,179h0a.42.42,0,0,0,.43-.42c0-.49-.06-12.14-5.27-15.62a.43.43,0,1,0-.47.71c4.84,3.22,4.9,14.8,4.9,14.91A.41.41,0,0,0,97.38,179Z"/><path fill="#5276a8" d="M92.3,194.25c15.31,0,22.33-10.26,22.4-10.37a.41.41,0,0,0-.12-.58.43.43,0,0,0-.59.11c-.06.1-6.85,10-21.69,10a.43.43,0,1,0,0,.85Z"/><path fill="#5276a8" d="M94.55,196.29c13.08,0,18.11-3.64,18.36-3.82a.44.44,0,0,0,.06-.6.42.42,0,0,0-.57-.08c-.07.05-6.93,5-25.15,3.31a.4.4,0,0,0-.46.36v0a.43.43,0,0,0,.39.47h0C89.87,196.19,92.33,196.29,94.55,196.29Z"/><path fill="#5276a8" d="M116,160.33c.2,0,2-.11,3.77-3.63a.42.42,0,1,0-.75-.38,7,7,0,0,1-2.25,2.84c1.34-3.81,1.35-10.81,1.35-11.13a.43.43,0,1,0-.85,0c0,.08,0,8.42-1.65,11.68a.43.43,0,0,0,.19.57.45.45,0,0,0,.19.05Z"/><path fill="#fbc9b5" d="M143.18,156.51s-5.89,15.92-9.52,18.93-7.55,11.49-7.44,15.42-2.54,8.9.85,8.9a6.74,6.74,0,0,0,3.23-.26c1.06-.59,7.79-.27,9.8-6.7,2-6.27,9.58-33,9.58-33s3.89.5,7.21-4.1c0,0,4.17-1.48,4.42-2.58s1.77-3.5,1.48-4.94-1.38-1.28-1.38-1.28.6-2.15,0-2.54a3.06,3.06,0,0,0-1.74-.21s.53-2-.14-2.27a4.44,4.44,0,0,0-1.62-.21s7.67-9,8.09-10c.49-1.19-1.48-1.24-3-.5s-15.91,16.26-16.9,16.36c0,0-3-7.44-6.22-7.82s-1.73,1.68-1.73,1.68,3.08,4.52,3,6.14S141.35,154.55,143.18,156.51Z"/><path fill="#fbc9b5" d="M154.1,154.36c-.16-.74.85-1,.85-1s-2.46-.12-3-.89.89-2,.89-2c-1.4,0-3.07-1.9-2.33-2.57s4.05,0,4.05,0l1.87-1.43a5.56,5.56,0,0,0,0-2.15c-.19-1.56,1.47-2.64,1.47-2.64a4.52,4.52,0,0,1,1.63.21c.67.29.14,2.27.14,2.27a3,3,0,0,1,1.73.21c.64.39,0,2.54,0,2.54s1.09-.17,1.37,1.28-1.23,3.85-1.48,4.94-4.41,2.58-4.41,2.58S154.26,155.11,154.1,154.36Z"/><path fill="#f4a490" d="M153.14,150.57h.08a10.85,10.85,0,0,1,1.8-.26,3.61,3.61,0,0,0,1.55-.55c.25-.16,2.45-1.59,2.58-2.19s.63-2.82.63-2.84a.21.21,0,1,0-.41-.12v0c0,.09-.53,2.32-.64,2.85a9.4,9.4,0,0,1-2.39,1.91,3.18,3.18,0,0,1-1.37.49,10.13,10.13,0,0,0-1.9.28.23.23,0,0,0-.13.28.21.21,0,0,0,.2.13Z"/><path fill="#f4a490" d="M155.58,153.51h0l1.69-.16a1.9,1.9,0,0,0,1.12-.51l1.83-1.7a1.87,1.87,0,0,0,.54-.88l.73-2.6a.21.21,0,0,0-.14-.26h0a.21.21,0,0,0-.26.14h0l-.74,2.6a1.42,1.42,0,0,1-.42.68l-1.83,1.7a1.42,1.42,0,0,1-.87.39l-1.69.16a.22.22,0,0,0,0,.43Z"/><path fill="#f4a490" d="M156.36,155.8a.21.21,0,0,0,.21-.22.2.2,0,0,0-.18-.2,4.83,4.83,0,0,1-2.11-1.14c0-.09.29-.44.62-.7l.44-.35-.55,0c-1.4-.09-2.59-.74-2.8-1.28s.38-1.07.61-1.27l.35-.31-.46-.06a2.17,2.17,0,0,1-1.74-1.52c-.05-.17-.13-.58.14-.78.5-.38,2.46-.09,3.58.19l.11,0,2-1.72v-2.75a.22.22,0,0,0-.43,0v2.56l-1.68,1.45c-.61-.14-3.07-.67-3.83-.09a1.1,1.1,0,0,0-.3,1.23,2.61,2.61,0,0,0,1.71,1.75,1.55,1.55,0,0,0-.46,1.46,3.56,3.56,0,0,0,2.68,1.49c-.28.29-.54.66-.35.95a4.94,4.94,0,0,0,2.42,1.32Z"/><path fill="#f4a490" d="M148.64,156.51a.24.24,0,0,0,.16-.07s1.45-1.54,4.89-.89a.22.22,0,0,0,.25-.17.23.23,0,0,0-.17-.25,6.38,6.38,0,0,0-4.85.67c.18-1.61.5-6.27-1.88-6.76a.22.22,0,0,0-.25.16h0a.22.22,0,0,0,.16.25h0c2.43.5,1.49,6.75,1.48,6.81a.22.22,0,0,0,.12.22Z"/><path fill="#2b2725" d="M99,95.72s-3.19-6.89-16.75-7.29-15.76,16.51-16,25S60.6,133.61,53.91,130c0,0,3,15.36,16.51,15.76s12.46-20,12.46-20l.43-14.41a7.63,7.63,0,0,1,7.85-7.4h0A7.63,7.63,0,0,0,99,96.57h0Z"/><path fill="#3f3937" d="M111.62,124.5l1.69.16s2-3.21,3-13.34-2.21-12.14-2.21-12.14a24.81,24.81,0,0,1-5.9,7.94L106.56,124Z"/><path fill="#3f3937" d="M114.11,99.18s-1-6.92-14.53-8.24S78.49,97.39,77,112.58c-.82,8.44,10.17,18,10.17,18l18.56,1.82.83-8.44,1.49-15.19s5.56-4.57,6-9.63"/><path fill="#fbc9b5" d="M108.21,107.12a1.67,1.67,0,0,1,1.79-1.53h.06c1.69.16,4.57,5.56,3.74,14h0l-.5,5.06s-3.3,16.16-13.47,15.73C86.76,139.83,86,124.64,86,124.64l.75-7.68s6.76.66,8.77-2.55,6.23-11.32,9.6-11A3.32,3.32,0,0,1,108.21,107.12Z"/><circle cx="92.78" cy="127.53" r="5.71" fill="#ffa89c"/><path fill="#ffa89c" d="M107.33,131.8a5.26,5.26,0,0,1,5.34-4.72,28.94,28.94,0,0,1-4.15,8.59A5.27,5.27,0,0,1,107.33,131.8Z"/><ellipse cx="100.86" cy="120.49" fill="#332d27" rx="3.75" ry="1.61" transform="rotate(-79.38 100.853 120.49)"/><ellipse cx="111.62" cy="122.46" fill="#332d27" rx="3.56" ry="1.31" transform="rotate(-79.4 111.617 122.465)"/><path fill="#332d27" d="M98.5,113.61a2.17,2.17,0,0,0-.67.2.43.43,0,0,0-.25.46.8.8,0,0,0,.38.35l.07,0a8.46,8.46,0,0,0,2.75.71,25.88,25.88,0,0,0,3.16.35,1.58,1.58,0,0,0,.75-.12.38.38,0,0,0,.22-.36c0-.25-.37-.46-.61-.61a6.25,6.25,0,0,0-.94-.45,9.78,9.78,0,0,0-2-.55A9,9,0,0,0,98.5,113.61Z"/><path fill="#332d27" d="M113.87,115.84a1.22,1.22,0,0,1,.4.35.48.48,0,0,1,0,.5.7.7,0,0,1-.36.25l-.06,0a4.66,4.66,0,0,1-2.1.06,13.51,13.51,0,0,1-2.29-.38.85.85,0,0,1-.49-.29A.45.45,0,0,1,109,116c.08-.24.38-.36.6-.45a4.22,4.22,0,0,1,.77-.22,5.53,5.53,0,0,1,1.52-.08A5,5,0,0,1,113.87,115.84Z"/><rect width="6.49" height="2.09" x="102.64" y="125.72" fill="#f3988e" rx=".46" transform="rotate(-79.38 105.879 126.767)"/><path fill="#f25a6b" d="M100.41,131.54a11.15,11.15,0,0,0,6,1.34.47.47,0,0,1,.47.49.3.3,0,0,1,0,.13,2.72,2.72,0,0,1-1.48,2.06,4.86,4.86,0,0,1-2.82.54,6.06,6.06,0,0,1-3-2.65.53.53,0,0,1,0-.39l.25-1.15a.48.48,0,0,1,.54-.41Z"/><rect width="13.57" height="23.75" x="76.2" y="120.21" fill="#cee2ff" rx=".93" transform="rotate(-11.46 82.984 132.041)"/><path fill="#081758" d="M91.66,140.71l-4-20a1.7,1.7,0,0,0-2-1.32l1.67-.34a1.7,1.7,0,0,1,2,1.33h0l4,19.95a1.69,1.69,0,0,1-1.32,2h0l-1.67.33a1.7,1.7,0,0,0,1.33-2Z"/><path fill="#fbc9b5" d="M59.27,189.58s-.21-5.3,1.49-6.85,15.12-19,17-29.19L77.15,144l-1.7-6.47a1.7,1.7,0,0,1,.09-1.13c.52-1.13,3-6.38,3.52-7.67.39-1,4.56-7.84,4.72-8.53s1.44.48,1.43,1.59S82.94,127,82.94,127l-.7,5.75,3.39-2.38s3.66-1.27,5.78-1.8c0,0,1.32,1-.21,2.31A9.06,9.06,0,0,1,87,132.55l-1,1.86,4.39-.21s3.7,2.42,4.3,3-1.91,1.2-4-.39l-3.39.22-1.06,3.07,3.55-1.38a15.45,15.45,0,0,0,3.81,1.8c1.76.45.32,2.76-4.08,1l-2.64,2.91s2.17,5.49.79,8.28a9,9,0,0,1-2.63,3.59s-7,29.17-13,35.92c0,0-3.11,3.15-5.94,3.5s-4.38,1.27-5.94.63c-.56-.23-.84-1.18-1-2.3A26,26,0,0,1,59.27,189.58Z"/><path fill="#ffbcad" d="M80.14,157.32a3.48,3.48,0,0,1,2.25-2.54,8.46,8.46,0,0,0,3.79-3.31c1.64-2.49.73-7.1.73-7.1s2.17,5.49.8,8.28a9,9,0,0,1-2.64,3.59s-7,29.17-13,35.92c0,0-3.11,3.15-5.94,3.5s-4.38,1.27-5.93.63c-.57-.23-.85-1.18-1-2.3C72.45,193,78.61,165.47,80.14,157.32Z"/><path fill="#ffac96" d="M82,127.29s2.76-3.83,3.12-6.11a1.58,1.58,0,0,1,.12.61c0,1.11-2.27,5.22-2.27,5.22l-.7,5.75-2,1.59Z"/><path fill="#ffac96" d="M84.63,133.18a3.34,3.34,0,0,1,2.1-1.27c1.82-.31,5-1,5.21-2.32a1.75,1.75,0,0,1-.74,1.3A9,9,0,0,1,87,132.55l-1,1.86h.16l-2.76.29Z"/><path fill="#ffac96" d="M84.61,140.58A3.38,3.38,0,0,1,87,137.12l.36-.12-1.06,3.08-1.64.88Z"/><path fill="#ff9c6e" d="M79.15,137.37a.21.21,0,0,0,.21-.17l.25-1.6a1.44,1.44,0,0,1,.28-.66l.91-1.21a.21.21,0,0,0,0-.29h0a.21.21,0,0,0-.29,0l-.91,1.2a1.89,1.89,0,0,0-.36.85l-.25,1.6a.21.21,0,0,0,.17.24h0Z"/><path fill="#ff9c6e" d="M81.85,138.91a.21.21,0,0,0,.21-.17l.28-1.5a1.55,1.55,0,0,1,.41-.78l1.64-1.64a.21.21,0,0,0-.3-.3l-1.64,1.64a2,2,0,0,0-.53,1l-.27,1.49a.2.2,0,0,0,.17.25Z"/><path fill="#ff9c6e" d="M83.05,142.92a.21.21,0,0,0,.16-.08l1.62-2a.21.21,0,1,0-.33-.27l-1.62,2a.21.21,0,0,0,0,.29h0A.24.24,0,0,0,83.05,142.92Z"/><path fill="#74a4e9" d="M177.09,62.31h-39a6.78,6.78,0,0,0-6.78,6.79V94.47a6.77,6.77,0,0,0,6.78,6.78h8.48v8.49l8.48-8.49h22.05a6.78,6.78,0,0,0,6.79-6.78h0V69.1a6.79,6.79,0,0,0-6.79-6.79Z"/><path fill="#fff" d="M156.41,88.89a1.5,1.5,0,0,1-1.49-1.44l0-.71a8.67,8.67,0,0,1,2.34-6.55c1.71-2,2.66-3.49,2.66-5.19,0-1.93-1.22-3.22-3.6-3.26a7.33,7.33,0,0,0-2.69.54,1.27,1.27,0,0,1-1.65-.7v0h0a1.28,1.28,0,0,1,.69-1.63A10.78,10.78,0,0,1,157,69c4.35,0,6.32,2.69,6.32,5.56,0,2.58-1.44,4.43-3.25,6.59a7.47,7.47,0,0,0-2.16,5.57v.63a1.5,1.5,0,0,1-1.47,1.52Zm-2.26,3.88a2.26,2.26,0,1,1,2.73,2.56,2.37,2.37,0,0,1-2.71-2A2.1,2.1,0,0,1,154.15,92.77Z"/></g></svg>